<?xml version="1.0" encoding="utf-8"?>
<!-- Generator: Adobe Illustrator 21.0.0, SVG Export Plug-In . SVG Version: 6.00 Build 0)  -->
<!DOCTYPE svg PUBLIC "-//W3C//DTD SVG 1.1//EN" "http://www.w3.org/Graphics/SVG/1.1/DTD/svg11.dtd">
<svg version="1.1" id="Layer_1" xmlns="http://www.w3.org/2000/svg" xmlns:xlink="http://www.w3.org/1999/xlink" x="0px" y="0px"
	 viewBox="0 0 209.6 235.3" style="enable-background:new 0 0 209.6 235.3;" xml:space="preserve">
<g>
	<g>
		<path d="M92.4,42.6c0,8.3,0.4,2.8,0.4-1.4c0.1,8.8,11.4,6.9,23.3,1.8c0,3,0.4,4.1,0.4,0.9C104.1,44.1,92.9,44.9,92.4,42.6z"/>
	</g>
	<g>
		<path d="M92.5,39.4c0,4.7,0,2.8,0,3c0.1-3,11.6-7.9,23.8,4.3c0-8.5,0,1.2,0-1.5c0-9.6,11.7-30.1,11.7-36.7
			c0,10.8-16.1,21.5-16.1,12.6c0,9.4-7.3-25.5-7.3-20.6c0-0.4-7.4,31.9-7.4,22.9c0-4.6-16-14.4-16-17.6c0,11.4,11.1,28.3,11.1,42.5
			C92.5,48.3,92.5,40.8,92.5,39.4z"/>
	</g>
	<g>
		<path d="M65.4,207c0.6,7.6,1.3,8.5,2.4,21c0.4-5,5.9,6.7,5.8,7.3c1.1-2.2,1.4-13,1.4-17.6C69.6,210,66.7,218.7,65.4,207z"/>
	</g>
	<g>
		<path d="M144.6,219c-0.6-3.7-1.3-8.5-2.4,8.9c-0.4-9.8-5.9,9.5-5.8-2.1c-1.1-0.2-1.4-8.6-1.4-10.8
			C140.3,219.3,143.3,206.9,144.6,219z"/>
	</g>
	<g>
		<g>
			<path d="M135.1,210c-0.1-7.9-0.2-10-0.8-7.9c-1.5-18.4-6-18.6-9.5-13.4c-0.3,10.2-0.6,1-0.7-1.8c-0.1,0.8,0,5.6,0.1,4.9
				c0.5,7.5,1,8,1.5,8.2c-0.9,9-1.8,3.1-2.8,1c-0.4-5.3-0.8,3.1-1.2-10.3c-0.1,2.3-0.6,6.1-1.5,6.4c-0.8-9.8-0.9-2.5-0.9,6.6
				c0-4.6,0.2,5,0.5,1.1c-0.9-3-1.9,5.2-2.8,0.5c-0.1,0.8-0.3-1.4-0.4-7.9c0-1.4-0.1-6.4-0.4-1.4c-0.6-1.7-2.4-2.5-3,1.3
				c-0.2,1.6-0.2-6.4-0.2,7.3c0,1.8,0.1-7.6,0.1,3c-1.1-4.6-2.2,4-3.3-7.7c-0.2,10.7-0.1,0.8-0.2,6.3c-0.1-14-0.4-14.8-1.3-7.5
				c-0.8-10.9-2-3.7-3.1-0.6c0-10.2,0-4.9,0,2.8c0-12.6-0.1-2.8-0.1-9.8c0,9.9-0.1,7.4-0.1-0.1c0,7.2,0,10.1,0,3.2
				c-1.1-2.7-2.3-1.3-3.1-3.4c-0.9,0.7-1.2,4.7-1.3,9.5c-0.1-0.6,0,1.9-0.2,12.3c-1.1-13.5-2.2-13-3.3-6.6c0,1.6,0.1-12.2,0.1-6.6
				c0,3.3,0,1.7-0.2-8.6c-0.6-0.3-2.4,11.2-3,11.6c-0.3-11.6-0.4-2.5-0.4-7.4c-0.1-1.2-0.3,14.6-0.4,11.4c-0.9-5-1.9,5.1-2.8-4.1
				c0.3,1.6,0.5-8,0.5-7.7c0,2.5-0.2-6.8-0.9,4.8c-0.9-7.3-1.3-0.1-1.5-10.7c-0.4,17-0.8,8.8-1.2,21.2c-0.9-11.8-1.8,0.7-2.8-5.7
				c0.5-7.4,1-6.7,1.5-6c0.1-7.4,0.2-0.9,0.1,1.7c-0.1-12.4-0.4-8.3-0.7-13.1c-3.5,0.8-8,10.1-9.5,16.9c-0.7-4.2-0.8,3.1-0.8,5.3
				c-0.2,1.2,0.1,8.1,0.1,12c6.5-1.9,16.7,7.6,29.6,6.8c0-7.5,1.2,4.7,1.2-0.5c12.7-4,22.8-11.1,29.3-5.5
				C135,215.5,135.3,211,135.1,210z"/>
		</g>
		<g>
			<path d="M100.2,160.6c0.2,0,0.3,7.1,0.5,4.9c0.4-4.1,0.9,6.1,1.3,0.5c0.4-5.5,0.7-1.9,1.1,3.2c0.4,2.9,0.6,3.8,0.9-2.3
				c0.2,1,0.4-0.5,0.7,2.5c0.2-7.8,0.5-9.8,0.7-0.2c0.3,3.9,0.5,2.1,0.9-0.5c0.3,1.3,0.7-6,1.1-3.7c0.4-0.8,0.9-3,1.3-4.7
				c0.2,12.5,0.4,6.8,0.5,8c2.3-11.7,4.3-7.7,5.1-6.5c0.2,0.6,0.5,0.8,0-12.8c-0.4,11.5-1.2-0.5-1.7,6.1c-0.3,1.4-0.7,6.2-1-4.3
				c-0.1,5.2-0.3-3.4-0.4,10.2c-0.2-2.6-0.3,0.5-0.4-12.8c-0.3,1.1-0.5,12.4-0.8-1.1c-0.4,3.9-0.7,7.8-1,3.5
				c-1.3-1.5-4.2-9.4-4.2,2.5c-0.1-10-0.2-0.8-0.2-11.1c0,2.5-2.9-1.6-4.2,8.9c-0.3,6-0.6-4.5-1-3c-0.2,5.1-0.4,1-0.8,10.6
				c-0.1,1.3-0.3-8.3-0.4-10.7c-0.1,6.5-0.3,4.2-0.4,6.8c-0.3,6.6-0.6,0.8-1,2c-0.5-6.8-1.3-1.7-1.7-4.6c-0.6-2-0.2,11.4,0,10.3
				C95.9,165.3,97.9,164.2,100.2,160.6z"/>
		</g>
		<g>
			<path d="M205.2,190.9c-4.2-0.4-10.5-10.7-17.5-12.3c1.5-7.8,2.8-2.3,4-14.7c0,9.4,18,9.9,18,13.7c-4.3-3.5-10.1-7.3-16.5-7.4
				c12-39.4,1.7-67.7,1.7-55.6c6.4-17.4,6.8-24.1,7.6-35c1.2-8.2,1.1-21.2,0.3-28.5c-0.5-14-1.3-15.6-2.2-31.1
				c-0.4-2.6-0.3-14.1-4.1-17.5c-1.3,12.7-2,9-2.8,1.5c-3.4,9.1-5.9,16.4-8.9,26.5c-2.9,0.4-6,2.2-9.2,11.5
				c-4.7-7.4-9.8,8.1-15.3,3.4c-1.6,11.6-11.1,9.4-13.6,9.6c-15.3,2.3-41,3.1-41,5.9c0-11.6-1.2-0.9-1.2-7c0-6.3-25.7-6.5-41,11.3
				c-2.5-6.6-12-13.6-13.6-11.4c-5.5-3.3-10.5-16.6-15.3-14.6c-3.2-7.2-6.2-19.2-9.2-20.5c-3,5.4-5.5-3.9-8.9-4.6
				c-0.8,1.6-1.5-9.8-2.8-9.5c-3.8,7.2-3.7,20.4-4.1,25.3c-0.9,2.5-1.7,16.3-2.2,20.4C6.8,57.7,6.7,66,7.9,87
				c0.8,8.9,1.2,17.8,7.6,22.8c0-4.6-10.3,21.9,1.5,55.6c-6.6,6.3-12.5,8.7-17-0.7c0,7.7,18.5,1.3,18.5,5.3c1.1-5.5,2.4-2.4,3.9,2.1
				c-7.2,8.5-13.6,11.1-17.9,10.9c0,2.5,20.1-8,20.1-0.7c1.3-3.1,2.8-0.2,4.4,2.6c-7.5,9.8-14.1,16.6-17.6,20.5
				c0-1.9,20.3-15.9,20.3-23.2c8.4,9.2,18,28.1,33.9,33.7c-0.5-3.3-0.8-6.6-1.1-12.3c-0.9,0.2,0.8-17-0.5-19.3
				c0.2-6.4-1.6,2.1-1.9,1.5c-0.8-2.8-1.3,4.3-1.5,18.5c-0.1,1.3,0-9.1,0.9-5.4c-3,6.1-6.5,2.1-9.7-5.5c-0.5,4-1-0.6-1.3-4.3
				c-0.4,7.1-0.5,7.1-0.6,6.9c-0.5-10.5-1.2-7.5-2.3-6.4c2-7.1,4.1-1.6,6.1-0.5c0.7-7.6,1.6-2.1,2,1.6c0.3-8.2,0,2.5-0.5-12
				c-0.5,11.4-1.2,4.8-1.8,5.3c-9.8,0.2-12.2-12-19.9-28.6c-3.7,4.3-8.4,9.2-11.2,2.5c-4.3-6.8-3-19.2-1.5-19
				c1.8-7.3,3.4-22.5,8.5-25.1c1.5-6,1.9-4.6,1.7-6.8c-0.2,9.8-0.9,3.4-1.4,5.1c-0.9,6-1.3,19.1-1.5,21.2c-0.2-5.9-0.3,3.1,0.6,10.2
				c3.7,14.3,21.7,7.9,32.1,14c3.2-2.5,6.1,2.2,8.7-12.1c2.8-1.3,4.9,4.4,6.6-11.5c1.3-0.6,1.6,0.2,3.8-3.4c1.2,0,2.9,5.7,4.4-2.4
				c1.4-4.4-0.9-14.5-1.6-9.5c-2.2-13.4-5.9-18.8-9.7-21.6c-8.3,2.5-19-4-28.6,2.4c0-9.8-0.1-9.7-0.1-11.7
				c-0.7,12.8-1.5,11.2-2.2,5.1c1.1,4.4,1.1-5.5,1.7-4.9c1.7-15.1,14.3-3.5,18.7-14.4c0.4,10.5,0.9-0.7,1.3,8
				c0.7,1.9,1.3-6.1,1.8,3.5c2.5-5,4.6-8.5,7.2-12.6c6.4-11.5,17.1-4.9,25.8-19.1c2.1,9.8,4.9-2.5,6.8,9.3c1.9-4.1,4.8-6.7,6.8-10.7
				c8.6,1.2,19.3,11.7,25.8,12.7c2.6,4.6,4.6,11.8,7.2,9c0.5,1.9,1.1,2,1.8-0.9c0.4,11.9,0.9,2.5,1.3,4.9c4.4-6.5,17-1.1,18.7,16
				c0.5-7.3,0.6-6.2,1.7-6.5c-0.7,7-1.5,3.4-2.2,10.2c0-4.8-0.1-4.9-0.1-3.9c-9.6-7.5-20.3-4.4-28.6,13c-3.9-0.3-7.5-0.8-9.7,0.6
				c-0.7,3.8-3,27.8-1.6,15.7c1.5,7.6,3.2,8.9,4.4,8.6c2.2-3.4,2.5,6.2,3.8,9.9c1.6-2.4,3.7,11.4,6.6,15c2.6-8.1,5.5,0.5,8.7,0.8
				c10.4-2.3,28.4-0.8,32.1-11.9c0.9-5,0.8-15.6,0.6-21.1c-0.2,2.9-0.6,2.9-1.5-7.7c-0.5-3.6-1.2,1.5-1.4,3.4
				c-0.2-15.1,0.2-15.9,1.7-11.8c5.1,12.4,6.7,19.6,8.5,32.4c1.5,4.9,2.8,7.1-1.5,14.2c-2.9,7.6-7.5,13.1-11.2,7.8
				c-7.8,3.8-10.2,19.4-19.9,18.2c-0.6,10.7-1.3,2-1.8,12.3c-0.5-7.6-0.9-8.3-0.5-7.7c0.4,8.9,1.3-3.3,2,7.5c2-10.8,4.1-7.1,6.1-1.4
				c-1.1,1.3-1.8-1-2.3,5.7c-0.1-0.2-0.2,4.2-0.6,4.9c-0.3-11.6-0.9-4.1-1.3-8c-3.2,2-6.6,3.8-9.7,11.8c0.9-3.6,1-12.9,0.9-5.4
				c-0.2-8-0.7-4.1-1.5-15.3c-0.3,4.6-2.2-4.5-1.9-9.8c-1.3,18.6,0.4,26.5-0.5,27.8c-0.3,5.5-0.6,9.6-1.1,5.6
				c15.8-5.1,25.4-10,33.8-24.3c0,5.8,20,27.6,20,19.1c-3.5-7.3-10-16-17.4-16c1.6-7.6,3.1-0.3,4.5-12.1
				C185.5,180.8,205.2,182.5,205.2,190.9z"/>
		</g>
	</g>
</g>
</svg>
